<?xml version="1.0" standalone="no"?><!DOCTYPE svg PUBLIC "-//W3C//DTD SVG 1.1//EN" "http://www.w3.org/Graphics/SVG/1.1/DTD/svg11.dtd"><svg t="1644566118324" class="icon" viewBox="0 0 1024 1024" version="1.1" xmlns="http://www.w3.org/2000/svg" p-id="16373" xmlns:xlink="http://www.w3.org/1999/xlink" width="200" height="200"><defs><style type="text/css"></style></defs><path d="M1024 271.36c-61.44 0-76.8-15.36-56.32-51.2-40.96-5.12-40.96-30.72-5.12-76.8-56.32 30.72-76.8 20.48-71.68-20.48-40.96 15.36-51.2-5.12-35.84-66.56-35.84 51.2-61.44 51.2-71.68 15.36-30.72 30.72-51.2 15.36-61.44-46.08-10.24 61.44-30.72 71.68-61.44 46.08-15.36 40.96-35.84 35.84-71.68-15.36 15.36 61.44 5.12 81.92-35.84 66.56 5.12 40.96-20.48 46.08-71.68 20.48 40.96 46.08 40.96 71.68-5.12 76.8 20.48 35.84 5.12 51.2-56.32 51.2 56.32 25.6 66.56 46.08 30.72 66.56 35.84 20.48 25.6 46.08-30.72 66.56 61.44 0 76.8 15.36 56.32 51.2 40.96 5.12 40.96 30.72 5.12 76.8 56.32-30.72 76.8-20.48 71.68 20.48 40.96-15.36 51.2 5.12 35.84 66.56 35.84-51.2 61.44-51.2 71.68-15.36 30.72-30.72 51.2-15.36 61.44 46.08 10.24-61.44 30.72-71.68 61.44-46.08 15.36-40.96 35.84-35.84 71.68 15.36-15.36-61.44-5.12-81.92 35.84-66.56-5.12-40.96 20.48-46.08 71.68-20.48-40.96-46.08-40.96-71.68 5.12-76.8-20.48-35.84-5.12-51.2 56.32-51.2-56.32-25.6-66.56-46.08-30.72-66.56-35.84-20.48-25.6-46.08 30.72-66.56z m-302.08 317.44c-117.76-30.72-215.04-128-250.88-250.88 30.72-117.76 128-215.04 250.88-250.88 117.76 30.72 215.04 128 250.88 250.88-30.72 117.76-128 215.04-250.88 250.88z m0 0" fill="#F9A433" p-id="16374"></path><path d="M977.92 337.92c0-5.12-10.24-20.48-10.24-25.6 0-15.36 0-15.36-5.12-30.72h-5.12c-10.24-35.84-25.6-66.56-46.08-97.28v-5.12h-5.12c-20.48-25.6-51.2-51.2-81.92-66.56v-5.12c-30.72-15.36-51.2-25.6-87.04-25.6 0 0-15.36-15.36-20.48-15.36l-20.48 15.36c-35.84 0-51.2 10.24-87.04 25.6v5.12c-30.72 15.36-61.44 40.96-81.92 66.56h-5.12v5.12c-15.36 30.72-30.72 61.44-40.96 97.28h-5.12c5.12 20.48 0 20.48 0 35.84l-10.24 20.48 10.24 20.48c0 15.36 0 15.36 5.12 30.72h5.12c5.12 40.96 20.48 71.68 46.08 102.4v5.12h5.12c20.48 25.6 51.2 51.2 81.92 66.56v5.12c30.72 15.36 46.08 25.6 81.92 25.6l25.6 15.36 20.48-15.36c35.84 0 51.2-10.24 81.92-25.6V563.2c30.72-15.36 61.44-40.96 81.92-66.56h5.12v-5.12c20.48-30.72 35.84-61.44 46.08-97.28h5.12c5.12-15.36 5.12-15.36 5.12-30.72-5.12-5.12 5.12-25.6 5.12-25.6z m-256 220.16c-122.88 0-220.16-97.28-220.16-220.16s97.28-220.16 220.16-220.16 220.16 97.28 220.16 220.16-97.28 220.16-220.16 220.16z m0 0" fill="#F9A433" p-id="16375"></path><path d="M527.36 337.92c0 71.68 35.84 133.12 97.28 168.96 61.44 35.84 133.12 35.84 194.56 0 61.44-35.84 97.28-97.28 97.28-168.96 0-107.52-87.04-194.56-194.56-194.56-107.52 0-194.56 87.04-194.56 194.56z m0 0" fill="#F58A33" p-id="16376"></path><path d="M721.92 143.36c-87.04 0-168.96 61.44-189.44 148.48 25.6 102.4 133.12 168.96 235.52 143.36 71.68-15.36 122.88-71.68 143.36-143.36-20.48-87.04-97.28-148.48-189.44-148.48z m0 0" fill="#F79A4D" p-id="16377"></path><path d="M645.12 225.28c0 25.6 15.36 46.08 40.96 61.44 25.6 10.24 61.44 10.24 87.04 0 30.72-15.36 46.08-35.84 46.08-61.44 0-40.96-40.96-71.68-87.04-71.68-46.08 0-87.04 30.72-87.04 71.68z m0 0" fill="#F4B04E" p-id="16378"></path><path d="M701.44 189.44c0 15.36 15.36 25.6 35.84 25.6 20.48 0 35.84-10.24 35.84-25.6s-15.36-25.6-35.84-25.6c-20.48 0-35.84 10.24-35.84 25.6z m0 0" fill="#FFEEC5" p-id="16379"></path><path d="M199.68 424.96S30.72 399.36 5.12 542.72c-15.36 81.92 20.48 128 71.68 158.72 46.08 25.6 87.04 30.72 87.04 30.72H819.2s35.84 0 61.44-15.36c46.08-15.36 102.4-56.32 87.04-153.6-15.36-107.52-133.12-107.52-133.12-107.52s5.12-87.04-87.04-112.64c-61.44-20.48-102.4 10.24-102.4 10.24s-71.68-122.88-220.16-117.76C225.28 256 199.68 424.96 199.68 424.96z m0 0" fill="#78A4D6" p-id="16380"></path><path d="M957.44 568.32c-20.48-97.28-133.12-92.16-133.12-92.16s5.12-87.04-81.92-112.64c-51.2-15.36-102.4 10.24-102.4 10.24S568.32 245.76 424.96 256C235.52 271.36 204.8 440.32 204.8 440.32s-158.72-35.84-189.44 102.4C-15.36 691.2 158.72 716.8 158.72 716.8h307.2s66.56-5.12 97.28-35.84c35.84-40.96 40.96-102.4-5.12-133.12-40.96-30.72-87.04-20.48-122.88-10.24l-15.36 5.12s-5.12-5.12 5.12-10.24 20.48-15.36 40.96-20.48c66.56-15.36 133.12 20.48 148.48 71.68 10.24 35.84 10.24 76.8-5.12 112.64l-5.12 20.48c0 5.12 5.12 5.12 5.12 5.12h220.16c-5.12 0 153.6-15.36 128-153.6z m0 0" fill="#C0E7FA" p-id="16381"></path><path d="M465.92 721.92s66.56-5.12 97.28-35.84c25.6-25.6 35.84-61.44 25.6-92.16l-15.36-30.72-5.12-5.12c-15.36-10.24-30.72-15.36-46.08-20.48 51.2 30.72 35.84 87.04 0 107.52-30.72 15.36-92.16 20.48-112.64 15.36-117.76-25.6-112.64-87.04-112.64-112.64 0-5.12 5.12-10.24 0-10.24s-10.24 5.12-15.36 5.12c-46.08 30.72-35.84 76.8-35.84 76.8s-76.8 25.6-143.36-10.24C40.96 578.56 35.84 512 35.84 496.64v5.12c0 5.12-5.12 5.12-5.12 15.36 0 0 0 5.12-5.12 5.12 0 5.12 0 5.12-5.12 10.24V547.84c0 5.12 0 10.24-5.12 15.36v30.72c5.12 112.64 143.36 128 143.36 128h307.2z m491.52-128c0-10.24 0-15.36-5.12-25.6V563.2v-5.12c-5.12-25.6-20.48-40.96-35.84-51.2-5.12-5.12-10.24-5.12-10.24-10.24 0 0 35.84 102.4-92.16 138.24-46.08 10.24-148.48 15.36-194.56-15.36 5.12 25.6 0 56.32-10.24 81.92-5.12 10.24-5.12 10.24-5.12 15.36 0 5.12 5.12 5.12 5.12 5.12h220.16c-5.12 0 133.12-10.24 128-128z m0 0" fill="#9CDCF8" p-id="16382"></path><path d="M399.36 337.92c0 30.72 40.96 56.32 87.04 56.32 51.2 0 87.04-25.6 87.04-56.32 0-30.72-40.96-56.32-87.04-56.32-51.2 0-87.04 25.6-87.04 56.32z m0 0" fill="#FFFFFF" p-id="16383"></path><path d="M670.72 808.96c-5.12 30.72-40.96 92.16-40.96 133.12 0 30.72 20.48 51.2 40.96 51.2s40.96-25.6 40.96-51.2c5.12-40.96-35.84-107.52-40.96-133.12z m-317.44 0c-5.12 30.72-40.96 92.16-40.96 133.12 0 30.72 20.48 51.2 40.96 51.2 25.6 0 40.96-25.6 40.96-51.2 5.12-40.96-35.84-107.52-40.96-133.12z m0 0" fill="#9CDCF8" p-id="16384"></path></svg>