<?xml version="1.0" standalone="no"?><!DOCTYPE svg PUBLIC "-//W3C//DTD SVG 1.1//EN" "http://www.w3.org/Graphics/SVG/1.1/DTD/svg11.dtd"><svg t="1644543473495" class="icon" viewBox="0 0 1024 1024" version="1.1" xmlns="http://www.w3.org/2000/svg" p-id="1644" xmlns:xlink="http://www.w3.org/1999/xlink" width="200" height="200"><defs><style type="text/css"></style></defs><path d="M548.864 886.41536h-60.53888a8.192 8.192 0 0 1-8.192-8.192V414.67904c0-4.5056 3.6864-8.192 8.192-8.192H548.864c4.5056 0 8.192 3.6864 8.192 8.192V878.1824a8.192 8.192 0 0 1-8.192 8.23296z" fill="#346BAA" p-id="1645"></path><path d="M304.25088 886.41536H243.712a8.192 8.192 0 0 1-8.192-8.192v-353.44384c0-4.5056 3.6864-8.192 8.192-8.192h60.53888c4.5056 0 8.192 3.6864 8.192 8.192v353.44384a8.192 8.192 0 0 1-8.192 8.192z" fill="#43A3D4" p-id="1646"></path><path d="M227.328 886.41536H166.78912a8.192 8.192 0 0 1-8.192-8.192v-210.41152c0-4.5056 3.6864-8.192 8.192-8.192H227.328c4.5056 0 8.192 3.6864 8.192 8.192v210.41152a8.192 8.192 0 0 1-8.192 8.192z" fill="#64B064" p-id="1647"></path><path d="M471.81824 886.784h-60.53888a8.192 8.192 0 0 1-8.192-8.192v-353.44384c0-4.5056 3.6864-8.192 8.192-8.192h60.53888c4.5056 0 8.192 3.6864 8.192 8.192v353.44384a8.192 8.192 0 0 1-8.192 8.192z" fill="#43A3D4" p-id="1648"></path><path d="M788.35712 886.41536h-60.53888a8.192 8.192 0 0 1-8.192-8.192V279.552c0-4.5056 3.6864-8.192 8.192-8.192h60.53888c4.5056 0 8.192 3.6864 8.192 8.192V878.1824a8.192 8.192 0 0 1-8.192 8.23296z" fill="#64B064" p-id="1649"></path><path d="M712.13056 886.41536h-60.53888a8.192 8.192 0 0 1-8.192-8.192V332.92288c0-4.5056 3.6864-8.192 8.192-8.192h60.53888c4.5056 0 8.192 3.6864 8.192 8.192v545.30048a8.192 8.192 0 0 1-8.192 8.192z" fill="#346BAA" p-id="1650"></path><path d="M31.3344 880.59904v7.33184c0 5.69344 4.62848 10.32192 10.32192 10.32192h940.72832a10.32192 10.32192 0 0 0 10.32192-10.32192v-7.33184a10.32192 10.32192 0 0 0-10.32192-10.32192H41.65632a10.32192 10.32192 0 0 0-10.32192 10.32192z" fill="#4B7AB5" p-id="1651"></path><path d="M41.65632 898.21184h7.33184a10.32192 10.32192 0 0 0 10.32192-10.32192V136.11008a10.32192 10.32192 0 0 0-10.32192-10.32192h-7.33184a10.32192 10.32192 0 0 0-10.32192 10.32192v751.8208c0 5.65248 4.62848 10.28096 10.32192 10.28096z" fill="#4B7AB5" p-id="1652"></path></svg>