<?xml version="1.0" standalone="no"?><!DOCTYPE svg PUBLIC "-//W3C//DTD SVG 1.1//EN" "http://www.w3.org/Graphics/SVG/1.1/DTD/svg11.dtd"><svg t="1627353254388" class="icon" viewBox="0 0 1235 1024" version="1.1" xmlns="http://www.w3.org/2000/svg" p-id="55141" xmlns:xlink="http://www.w3.org/1999/xlink" width="241.2109375" height="200"><defs><style type="text/css">@font-face { font-family: feedback-iconfont; src: url("//at.alicdn.com/t/font_1031158_1uhr8ri0pk5.eot?#iefix") format("embedded-opentype"), url("//at.alicdn.com/t/font_1031158_1uhr8ri0pk5.woff2") format("woff2"), url("//at.alicdn.com/t/font_1031158_1uhr8ri0pk5.woff") format("woff"), url("//at.alicdn.com/t/font_1031158_1uhr8ri0pk5.ttf") format("truetype"), url("//at.alicdn.com/t/font_1031158_1uhr8ri0pk5.svg#iconfont") format("svg"); }
</style></defs><path d="M176.551724 70.62069v388.413793H0V0h1094.62069v70.62069H176.551724z" fill="#C1E0FA" p-id="55142"></path><path d="M247.172414 459.034483V141.241379h988.689655v317.793104H247.172414z m847.448276-211.862069H459.034483v105.931034h635.586207V247.172414z" fill="#0A98E6" p-id="55143"></path><path d="M788.903724 1014.148414a41.842759 41.842759 0 0 1-52.965517 0H687.13931v-48.375173L540.248276 819.2a52.047448 52.047448 0 0 1 5.826207-69.773241 46.150621 46.150621 0 0 1 65.924414-9.851587l75.246344 75.034483V447.982345a42.902069 42.902069 0 0 1 85.768828 0v227.787034h21.46869v-2.224551a42.902069 42.902069 0 0 1 85.804138 0v2.224551h21.433379v-2.224551a42.902069 42.902069 0 1 1 85.768827 0v2.224551h21.43338v-2.224551a42.902069 42.902069 0 0 1 85.768827 0v340.603586h-305.787586zM843.069793 614.4l-23.234207-38.452966a159.920552 159.920552 0 0 0 60.34538-125.881379 150.316138 150.316138 0 1 0-300.137932 0 159.920552 159.920552 0 0 0 60.38069 125.881379l-23.375448 38.452966a205.965241 205.965241 0 0 1-80.013242-164.334345A198.196966 198.196966 0 0 1 730.041379 247.172414a198.196966 198.196966 0 0 1 193.006345 203.034483 205.965241 205.965241 0 0 1-79.977931 164.193103z" fill="#0A98E6" p-id="55144"></path></svg>