<?xml version="1.0" standalone="no"?><!DOCTYPE svg PUBLIC "-//W3C//DTD SVG 1.1//EN" "http://www.w3.org/Graphics/SVG/1.1/DTD/svg11.dtd"><svg t="1644543761679" class="icon" viewBox="0 0 1024 1024" version="1.1" xmlns="http://www.w3.org/2000/svg" p-id="3636" xmlns:xlink="http://www.w3.org/1999/xlink" width="200" height="200"><defs><style type="text/css"></style></defs><path d="M31.29344 748.17536l0.12288 8.35584h216.2688l-0.04096-4.58752c0-71.68 28.54912-136.64256 74.87488-184.27904l-154.86976-154.86976a479.10912 479.10912 0 0 0-136.35584 335.38048z" fill="#346BAA" p-id="3637"></path><path d="M512 267.4688c-135.04512 0-257.06496 55.7056-344.39168 145.36704l154.86976 154.86976a264.192 264.192 0 0 1 413.12256 43.25376l156.71296-156.71296A479.76448 479.76448 0 0 0 512 267.4688z" fill="#2aa515" p-id="3638" data-spm-anchor-id="a313x.7781069.0.i25" class="selected"></path><path d="M892.3136 454.20544l-156.71296 156.71296c25.8048 40.83712 40.79616 89.16992 40.79616 141.02528l-0.04096 4.58752h216.2688l0.12288-8.35584a478.6176 478.6176 0 0 0-100.43392-293.96992z" fill="#43A3D4" p-id="3639"></path></svg>