<?xml version="1.0" standalone="no"?><!DOCTYPE svg PUBLIC "-//W3C//DTD SVG 1.1//EN" "http://www.w3.org/Graphics/SVG/1.1/DTD/svg11.dtd"><svg t="1644543856012" class="icon" viewBox="0 0 1024 1024" version="1.1" xmlns="http://www.w3.org/2000/svg" p-id="3836" xmlns:xlink="http://www.w3.org/1999/xlink" width="200" height="200"><defs><style type="text/css"></style></defs><path d="M868.88448 733.22496c-1.88416 0-4.3008 1.47456-5.89824 1.47456-1.47456 2.00704-3.35872 2.49856-5.3248 2.94912-0.86016 3.76832-4.95616 4.21888-5.98016 6.71744-0.4096 2.33472-0.4096 5.12-1.35168 6.10304l-2.8672 1.55648c-1.67936 2.41664-1.2288 5.57056-1.2288 7.53664a46.98112 46.98112 0 0 0-6.18496 18.26816c1.39264 1.024 1.39264 2.94912 1.88416 4.42368 0.49152 3.6864-1.88416 7.65952-2.33472 10.89536l3.85024 3.8912c0.86016 1.47456 0.49152 3.6864 2.33472 3.6864 0.49152 2.00704 1.59744 2.94912 1.59744 4.42368 1.96608 0.94208 3.85024 0.49152 5.3248 1.47456l0.86016 0.94208v1.76128c4.096 1.55648 1.47456 5.98016 4.58752 6.38976 1.88416 0.53248 2.8672-0.94208 4.3008-0.4096 2.62144-1.06496 3.11296-3.03104 3.56352-5.48864 0.49152-3.6864-0.45056-7.61856 1.024-10.81344 5.16096-5.89824 2.82624-14.58176 6.38976-20.6848 0.53248-13.76256 3.76832-28.83584 0.53248-41.12384-3.19488-0.49152-3.64544-2.49856-5.07904-3.97312z" fill="#346BAA" p-id="3837"></path><path d="M494.75584 419.75808c-27.15648 8.15104-32.5632 56.97536-13.55776 67.82976 32.5632 24.41216 62.42304 65.1264 73.27744 103.13728 5.44768 10.8544 32.5632 27.15648 43.4176 10.8544 5.44768-8.15104 2.70336-21.7088 10.8544-24.41216 32.5632-16.30208 86.8352 35.26656 94.98624-16.30208 10.8544-48.86528-24.41216-100.43392 13.55776-135.70048 10.8544-10.8544 35.26656 5.44768 46.12096-5.44768 19.00544-13.55776 24.41216-48.86528 5.44768-65.1264-10.8544-10.8544-29.85984-13.55776-48.86528-10.8544 5.44768-27.15648 48.86528-56.97536 16.30208-65.1264a78.97088 78.97088 0 0 0-5.3248-1.51552 9.216 9.216 0 0 1-1.47456 0.98304h-4.5056a6.7584 6.7584 0 0 0-3.85024 2.70336l-0.49152 0.94208c0 4.42368-2.12992 6.84032-2.62144 10.60864a13.88544 13.88544 0 0 1-7.41376 2.90816l-1.88416 2.00704c-2.82624 1.2288-4.75136 1.2288-7.45472 2.21184-3.23584 3.8912-5.65248 5.89824-8.72448 8.6016l-2.8672 1.47456-0.94208 1.55648c-1.88416 0.94208-2.33472 2.41664-4.5056 2.41664-9.25696 2.74432-17.65376-2.94912-26.46016-1.47456-2.82624 0.90112-4.21888 1.96608-5.69344 2.90816-0.49152 2.70336-2.08896 2.70336-3.56352 3.23584-0.53248 4.38272 0 8.06912-0.53248 12.0832 1.47456 4.62848 4.58752 7.5776 6.06208 10.48576l2.33472 2.70336v1.55648a5.12 5.12 0 0 1-3.2768 3.03104c-1.47456 1.88416-1.47456 4.62848-3.11296 6.06208-1.96608 0.53248-2.8672 0.53248-4.3008 0.53248a49.3568 49.3568 0 0 0-7.41376 7.20896c-1.024 2.33472-1.39264 4.38272-2.90816 5.36576-5.98016 1.2288-10.48576 1.76128-18.80064 1.2288-4.3008 1.024-9.25696 1.024-13.02528 1.024-6.92224 1.96608-14.78656 2.49856-22.15936 4.9152l-2.41664 2.49856a97.0752 97.0752 0 0 1-7.41376 1.67936l-1.88416 2.37568c-1.88416 0.49152-2.8672 1.024-4.58752 1.024a38.33856 38.33856 0 0 1-9.78944 6.06208c-10.8544 18.432-38.42048 25.06752-60.53888 31.744z" fill="#43A3D4" p-id="3838"></path><path d="M533.05344 783.85152c-4.46464-17.2032 22.69184-45.54752 19.6608-68.85376s-27.32032 19.2512-17.2032-27.32032c10.11712-46.57152 23.30624-11.14112 41.53344-37.4784 9.37984-13.55776 9.09312-29.4912 6.59456-41.82016-11.83744-0.4096-25.64096-10.32192-29.32736-17.69472-10.8544-38.01088-40.71424-78.72512-73.27744-103.13728-19.00544-10.8544-13.55776-59.71968 13.55776-67.82976 22.15936-6.63552 49.72544-13.312 60.57984-31.744a46.12096 46.12096 0 0 1-4.17792 1.55648c-3.15392-0.49152-3.64544-2.41664-5.5296-2.8672-6.43072-0.53248-11.71456 0.45056-17.6128-0.53248-1.96608-3.15392-5.5296-4.62848-6.43072-7.5776-4.3008-2.70336-7.86432-1.024-11.71456-2.70336-0.4096-2.00704-1.35168-2.94912-1.35168-4.42368-1.96608-1.55648-4.05504-2.49856-6.06208-4.21888h-5.89824c-2.82624-0.45056-3.2768-2.41664-5.24288-2.94912-11.8784 0-22.15936-2.41664-33.792-1.88416l-2.62144-2.00704a84.21376 84.21376 0 0 0-20.48-3.23584c-2.82624-0.45056-2.82624-2.94912-5.44768-2.49856-2.41664-0.86016-3.85024-2.41664-5.24288-2.8672-0.49152-2.74432-2.41664-2.74432-2.41664-4.21888V344.4736c-1.67936-1.47456-2.17088-3.15392-3.03104-4.17792 0.4096-2.94912-1.96608-3.97312-1.47456-5.89824l-2.94912-4.13696c-0.49152-3.4816 0-8.192-1.67936-10.60864-0.86016-1.47456-2.90816-1.47456-4.21888-2.00704h-1.4336c-3.072-1.4336-3.072-5.69344-6.02112-6.144-0.4096-2.00704-1.35168-4.42368-1.35168-6.18496-4.99712-1.96608-7.41376-6.38976-11.71456-7.41376H384.2048c-4.79232-4.096-11.63264-4.62848-17.69472-6.10304l-2.33472-2.00704a21.25824 21.25824 0 0 1-11.8784-3.64544 34.24256 34.24256 0 0 1-0.49152-12.0832c4.05504-3.6864 4.58752-8.68352 5.89824-12.77952-2.90816-5.44768-0.49152-12.0832-3.76832-16.7936l-1.6384-1.06496c-1.4336-4.38272-0.98304-9.54368-1.4336-13.43488-1.47456-1.024-1.47456-3.19488-1.92512-4.25984-2.82624-0.4096-3.2768-3.35872-5.5296-4.42368-1.80224-0.49152-2.82624 1.06496-4.17792 0.53248a21.2992 21.2992 0 0 1-6.06208-2.94912c-0.90112-2.74432-2.37568-4.17792-4.21888-4.62848a14.78656 14.78656 0 0 0-5.03808-5.24288c-2.41664-6.38976 0.49152-14.00832-1.88416-19.16928-6.92224-3.03104-15.23712 0.45056-22.15936 2.12992-1.96608 1.47456-1.96608 3.03104-3.31776 4.46464l-0.45056 1.55648c-1.47456 1.92512-3.15392 2.4576-5.57056 3.15392-1.88416 0.53248-4.21888 0-5.69344 0.53248 0 2.41664-3.4816 1.88416-4.01408 2.90816-2.8672 3.93216-2.41664 9.66656-1.92512 13.55776-1.88416 1.2288-1.39264 5.16096-3.072 5.57056a19.2512 19.2512 0 0 1-8.8064 2.00704l-5.28384-1.47456h-1.39264c-3.11296-0.53248-4.01408-3.44064-5.89824-3.8912-4.99712-1.024-7.41376-4.7104-11.18208-4.7104-2.6624 1.024-3.15392 3.23584-5.48864 3.76832-1.96608 1.88416-0.94208 4.83328-3.35872 5.36576-1.67936 2.70336-2.62144 5.65248-3.56352 7.65952a9.4208 9.4208 0 0 0-3.35872 3.6864l-0.86016 2.8672-2.70336 2.048c-1.47456 4.17792-0.94208 7.20896-1.47456 10.56768l-1.35168 2.21184h-11.71456c-5.89824-6.10304-14.78656-2.21184-21.7088-3.23584-2.74432 0.53248-2.74432 3.76832-5.16096 3.76832-1.67936 2.49856 0.45056 4.9152-2.17088 5.85728-0.45056 11.42784-0.45056 22.97856-0.94208 33.5872l-0.90112 0.90112h-1.4336c-1.88416 1.39264-1.88416 3.60448-3.56352 3.60448l-2.90816 2.58048c0.94208 6.18496-2.82624 11.01824-4.7104 15.23712l-2.6624 1.47456c-4.7104-0.45056-9.25696 1.96608-13.02528 3.44064-9.33888-1.024-17.69472-3.8912-26.50112-1.024-2.62144 3.03104-6.92224 2.49856-9.99424 2.49856-1.88416 0.98304-3.85024 0.98304-4.3008 2.21184l-1.4336 3.03104c-3.56352 1.024-4.5056 2.8672-7.41376 4.38272-2.8672-0.49152-4.95616 0.45056-7.3728-0.49152-0.94208-1.96608-2.8672-3.8912-4.95616-3.8912-4.3008 0.45056-7.65952-1.55648-11.71456-1.55648l-2.78528 1.55648c-4.5056 0.45056-7.86432-0.53248-11.8784 1.024-2.90816 3.39968-5.7344 4.62848-8.43776 6.10304l-0.49152 1.47456c-1.8432 0.98304-2.33472 2.4576-4.25984 2.4576a18.10432 18.10432 0 0 0-0.49152 12.288c-1.47456 2.53952-3.072 3.44064-4.54656 4.99712l-0.94208 2.8672 0.86016 3.15392c1.92512 0.98304 2.6624 2.99008 3.56352 3.93216 3.8912 2.21184 6.63552 0.53248 10.28096 2.21184 1.4336 1.024 1.4336 3.03104 1.96608 4.5056 0 1.96608 0.45056 4.62848 0.45056 6.10304-0.94208 3.52256-2.41664 4.99712-3.35872 7.65952v6.06208l-0.94208 0.94208c-3.56352 1.76128-6.47168 2.21184-8.3968 4.21888a13.14816 13.14816 0 0 0 0 6.18496c3.35872 2.41664 4.83328 4.38272 7.86432 5.85728 2.41664 2.00704 2.8672 5.65248 5.3248 6.71744 2.33472 7.5776 0 15.72864 2.33472 22.85568l1.14688 1.024c2.8672 0.94208 3.35872 2.49856 5.69344 2.94912 4.096 4.62848 7.3728 10.15808 11.96032 12.57472h2.94912c1.35168 3.23584 5.36576-0.49152 5.36576 3.23584-0.2048 8.47872 1.76128 16.87552 5.69344 24.41216-1.39264 3.44064-2.8672 5.36576-4.3008 7.86432 0.94208 6.63552 2.90816 13.76256 2.90816 22.36416l-1.47456 2.08896c-2.82624-0.53248-3.35872-2.53952-5.03808-4.05504h-1.31072c-2.8672 1.024-3.85024 2.41664-5.69344 3.4816-1.2288 1.88416 0 4.62848-1.2288 6.10304 1.2288 9.6256-0.94208 18.2272 1.2288 27.36128 2.82624 1.024 3.85024 3.97312 5.16096 5.65248l3.15392 0.53248c2.62144 3.72736 5.57056 7.24992 8.72448 10.56768 1.88416 2.00704 2.41664 5.69344 3.8912 7.65952 3.15392 4.096 5.89824 8.47872 8.27392 13.1072 1.96608 1.39264 4.58752 1.39264 5.5296 2.70336 2.8672-0.8192 3.76832-3.23584 5.69344-4.7104 2.08896-0.49152 3.15392-0.49152 4.5056-0.49152 9.216 7.90528 16.7936 17.48992 22.36416 28.30336 2.21184 1.96608 5.5296 1.96608 7.41376 3.15392l3.072 2.00704 2.49856 2.41664c0.4096 2.53952 0 6.26688 1.35168 7.5776l2.8672 1.59744 1.59744 2.90816c2.41664 1.26976 4.75136 1.76128 6.71744 2.70336 0.65536 2.00704 0.65536 2.94912 0.65536 4.42368 0.94208 2.00704 1.35168 2.41664 2.33472 3.6864 2.82624 0.94208 4.7104 2.41664 7.41376 2.94912 0.94208 2.94912 1.88416 4.42368 2.82624 6.18496 3.35872 1.47456 7.3728 1.47456 10.28096 1.47456 1.80224 0.94208 2.53952 2.49856 4.5056 2.49856 4.79232 0.94208 10.19904 3.6864 14.49984 4.7104l4.58752 2.49856h7.3728c2.33472 0.94208 2.82624 3.8912 4.7104 4.38272 3.072 0.49152 5.03808-1.39264 7.41376-1.96608 4.01408 4.7104 0 12.36992 3.56352 16.26112 1.88416 0.49152 4.3008 1.55648 5.7344 1.55648 2.12992-1.06496 4.01408-1.06496 4.5056-2.00704 0.94208-2.94912 2.41664-4.7104 2.41664-7.24992 1.39264-2.33472 4.5056-3.85024 6.51264-6.06208h8.72448l2.90816 2.74432c3.56352 0.94208 7.86432 1.4336 10.40384 2.94912l1.47456 2.90816 2.90816 1.76128 1.35168 2.8672a11.34592 11.34592 0 0 1 5.03808 5.24288c3.15392 1.76128 5.98016 4.096 8.35584 6.84032 0.45056 3.23584-0.49152 5.16096 0.45056 7.65952l3.35872 3.6864a35.6352 35.6352 0 0 0 17.6128 0.45056c2.62144-0.4096 3.072-2.12992 4.58752-2.70336h2.82624c2.41664-0.49152 2.8672-1.96608 4.58752-2.49856l0.94208-1.47456c4.7104-1.96608 10.19904-1.4336 12.57472-5.12 3.15392-1.55648 5.5296-3.4816 7.41376-4.9152l2.90816-1.06496h1.67936c2.82624-0.49152 3.6864-2.12992 5.7344-2.12992l3.56352-2.49856h5.77536c4.58752 2.94912 7.7824 7.5776 13.312 9.6256 3.85024-0.53248 8.8064 1.024 11.6736-1.47456 1.024-2.41664 4.05504-5.65248 5.03808-7.12704 1.80224 0.49152 2.82624 0 4.21888 0.49152 2.08896 5.5296 4.42368 10.97728 6.92224 16.34304l3.072 0.94208 1.88416 2.70336c0 2.94912 1.47456 4.9152 0 10.07616-0.49152 3.44064-1.35168 5.89824-0.94208 9.05216a16.5888 16.5888 0 0 1-3.072 5.89824c0 2.74432 0 5.24288-1.4336 6.18496-2.82624 1.47456-4.75136 4.17792-6.43072 6.18496-4.3008 1.47456-6.18496 6.10304-8.31488 8.6016v2.90816c-0.94208 2.90816-4.3008 2.49856-4.7104 5.16096-0.65536 6.5536-0.32768 13.18912 0.86016 19.70176l1.96608 1.47456c5.5296 1.55648 11.8784-1.47456 16.26112 1.024l1.35168 3.23584c0 3.35872 0.49152 5.85728 0.49152 9.05216 1.2288 3.4816 3.56352 4.42368 4.58752 6.84032 2.33472 1.26976 4.3008 1.76128 5.5296 3.2768-1.67936 2.41664 0.4096 4.83328-2.17088 5.89824 0 3.6864-0.53248 6.10304-0.53248 9.05216 0.53248 2.70336 1.96608 3.23584 2.70336 4.7104 1.39264 1.39264 2.74432 1.88416 3.76832 2.94912a7.7824 7.7824 0 0 1 4.58752 1.67936c0.49152 2.41664 1.88416 2.94912 2.82624 3.4816 1.39264 0.94208 1.39264 3.8912 2.33472 4.42368 1.51552 1.18784 2.8672 2.58048 4.05504 4.096 2.41664 1.55648 5.3248 1.024 7.168 1.024 3.072-1.024 2.08896-4.42368 4.95616-4.42368l1.024 1.024c1.024 2.94912 1.88416 4.9152 2.33472 7.3728 3.56352 0.73728 2.62144 3.6864 5.03808 5.16096 1.88416 0.4096 2.82624 0.94208 4.5056 0.94208 2.90816-0.53248 3.35872-2.94912 5.69344-2.41664 4.5056-6.71744 0.49152-15.31904 1.39264-22.36416 1.67936-2.00704 4.096-1.55648 5.98016-2.00704 2.33472 0.45056 5.44768 0.45056 7.3728 0.45056l1.4336-2.90816a6.67648 6.67648 0 0 1 4.5056-1.55648c7.41376 2.94912 15.07328 0.49152 21.9136 2.94912 2.62144-0.49152 3.072-1.96608 4.58752-2.49856 2.70336 0 6.06208 0.57344 8.56064-0.24576-0.16384-16.50688 0.32768-30.06464-1.10592-35.6352zM980.992 180.30592l-2.90816-2.53952h-1.35168l-2.70336 2.00704h-2.82624c-3.35872 2.8672-7.86432 5.65248-10.19904 9.05216-3.64544 1.024-5.98016 1.47456-7.86432 4.17792 0.49152 3.03104-1.96608 3.97312-1.96608 5.89824-3.56352 1.024-3.56352 4.17792-5.89824 6.18496-5.5296 1.47456-9.33888 3.8912-14.336 3.8912-1.88416-1.47456-3.76832-3.8912-5.69344-4.42368l-1.67936-0.49152-0.49152-2.94912a22.56896 22.56896 0 0 0-2.33472-5.65248 5.12 5.12 0 0 1-2.82624-3.4816 18.92352 18.92352 0 0 1-6.43072-6.10304c-2.41664-1.47456-5.5296-0.94208-7.41376-0.94208-2.33472-2.29376-4.83328-3.2768-7.41376-5.16096-6.63552-0.53248-14.49984 0.45056-20.48-1.55648l-2.29376-2.49856c-0.49152-1.67936-1.67936-3.64544-2.62144-3.64544-1.024-4.5056-2.41664-8.15104-2.90816-12.0832-1.88416-0.49152-1.88416-3.03104-2.33472-4.21888-2.12992-0.4096-3.072-1.39264-4.58752-1.39264-1.39264-1.96608-2.82624-3.8912-3.85024-5.89824a10.52672 10.52672 0 0 0-4.95616-7.12704c-1.88416-1.47456-1.39264-5.24288-2.82624-6.18496l-1.47456-1.024c-2.12992-1.47456-1.67936-4.17792-2.12992-6.18496-3.76832-2.41664-4.7104-5.36576-7.04512-7.5776-1.67936-0.94208-1.67936-3.97312-2.70336-4.42368-1.39264-1.96608-4.75136-1.47456-5.69344-3.6864-3.072 0.73728-4.95616-0.53248-7.41376 0.73728-1.35168 1.47456-2.53952 2.49856-4.01408 2.49856a21.66784 21.66784 0 0 0-9.25696-4.7104c-3.2768-0.49152-5.98016 0.53248-8.88832-0.94208-2.74432 1.47456-6.30784 0.94208-8.72448 0.94208-2.82624 0.53248-3.76832 2.21184-5.98016 2.21184-2.82624 0.49152-3.2768 2.94912-5.69344 2.94912a24.28928 24.28928 0 0 0-8.72448 1.47456l-1.024 1.024-0.65536 1.47456-2.82624 0.49152c-1.47456 1.26976-1.47456 3.23584-1.96608 4.21888-1.35168 1.47456-2.33472 2.41664-4.01408 2.41664l-3.85024 0.53248c-1.4336 1.96608-2.33472 4.096-3.76832 5.65248v2.82624l3.2768 4.21888c2.8672 0 5.03808 0.53248 7.41376 0.53248l1.024 0.94208c0.94208 3.4816-0.49152 6.18496 0.49152 9.13408l-1.47456 2.94912c-0.86016 1.024-3.03104 3.15392-3.56352 3.6864 0 2.41664 0 4.9152-1.39264 5.89824l-1.47456 1.024c-2.33472 4.21888-3.2768 9.13408-5.44768 12.288-0.94208 4.42368 0 8.15104-1.88416 12.0832-3.35872 3.6864-6.92224 6.59456-9.25696 10.07616-1.024 1.55648-2.90816 1.55648-4.38272 2.21184-6.38976 0-11.8784-0.65536-17.53088 0l-1.26976 1.024c-1.88416 4.38272-5.16096 7.5776-5.65248 12.57472l-1.47456 1.024c-1.2288 4.62848-3.072 7.5776-3.56352 12.288l-1.47456 1.39264c-0.94208 5.44768-2.33472 11.63264-2.33472 16.7936 0.45056 2.49856 1.88416 2.8672 2.33472 4.38272l0.94208 1.024 2.8672 2.21184a17.28512 17.28512 0 0 0 7.41376-1.76128l4.05504-2.94912h5.69344l2.62144 2.00704c1.96608 1.47456 3.76832 0.94208 5.24288 1.47456 2.62144-1.47456 3.64544-3.8912 6.47168-3.8912l1.88416-3.03104c2.12992-1.67936 5.48864-2.21184 7.3728-1.2288l1.47456 3.23584 3.03104 1.39264c1.96608 2.49856 3.35872 5.16096 5.77536 5.69344 1.59744 1.47456 1.59744 3.35872 3.4816 3.35872 1.024 2.00704 2.49856 2.53952 2.49856 4.7104l-2.00704 2.08896c-5.57056-0.45056-10.28096 1.024-14.78656 1.024l-3.35872 2.41664h-7.3728c-3.93216 2.78528-5.89824 6.47168-8.8064 8.72448 1.80224 0.49152 3.56352 0.94208 5.3248 1.51552 32.5632 8.15104-10.8544 38.01088-16.30208 65.1264 19.00544-2.70336 38.01088 0 48.86528 10.8544 19.00544 16.30208 13.55776 51.56864-5.44768 65.1264-10.8544 10.8544-35.26656-5.44768-46.12096 5.44768-38.01088 35.26656-2.70336 86.8352-13.55776 135.70048l-0.65536 3.31776c9.05216 5.07904 15.85152 8.68352 18.92352 6.06208 7.08608-6.06208 24.28928-23.30624 24.86272-17.2032 0.53248 6.06208 17.69472 37.4784 26.78784-3.03104 4.58752-20.39808 17.16224-26.17344 29.65504-27.72992 0.77824-1.8432 2.41664-2.49856 3.64544-3.72736 2.41664-6.10304 6.84032-8.6016 10.73152-11.83744a31.21152 31.21152 0 0 1 2.82624-5.89824l1.67936-1.06496c1.88416-2.00704 1.39264-5.44768 2.33472-7.41376l0.94208-1.2288c2.41664-1.47456 5.98016-0.53248 7.3728-2.00704l0.53248-1.47456c6.30784-3.11296 11.83744-7.5776 16.1792-13.1072l-1.024-3.15392c-2.08896-1.024-2.62144-2.49856-4.5056-2.49856-1.88416 0.53248-2.90816 0-4.21888 0.53248-3.64544 0-5.12-2.49856-7.41376-2.49856l-1.47456 0.94208c-3.072-1.39264-5.03808-2.70336-7.41376-2.70336l-3.072-3.8912c-7.3728-0.49152-13.63968 4.7104-17.69472 9.05216l-2.82624 0.53248c-1.96608 4.21888-5.5296 7.12704-8.35584 9.6256-1.96608 0-2.82624-1.024-4.5056-1.024l-1.47456-2.94912 2.62144-1.47456v-7.20896a16.9984 16.9984 0 0 0-10.48576-7.12704c-3.2768-0.49152-7.3728 0.45056-10.28096-0.49152-1.80224-2.49856-3.76832-4.21888-4.7104-7.20896 0.94208-2.41664-1.67936-4.9152 0.94208-6.10304 0.86016-1.024 2.90816-1.47456 4.21888-1.47456 1.96608 0.49152 3.15392 0.94208 4.58752 0.94208 2.90816-0.49152 3.85024-1.88416 5.69344-1.88416 2.17088-2.49856 4.096-3.97312 5.98016-5.69344-0.53248-2.49856 1.39264-2.49856 0.94208-4.38272a60.6208 60.6208 0 0 1 7.86432-12.0832c4.5056-1.80224 7.3728-3.76832 10.19904-5.16096 0.49152-2.00704 1.67936-3.03104 1.67936-4.5056 1.39264-2.21184 2.90816-2.70336 3.35872-4.21888 1.39264-2.90816 1.80224-5.57056 4.21888-7.5776 2.12992-0.49152 3.15392-0.94208 4.5056-0.94208 2.90816-0.53248 3.35872-2.94912 6.06208-2.49856a23.79776 23.79776 0 0 1 1.35168 7.5776c-1.88416 1.55648-1.4336 4.9152-3.072 5.89824l-2.33472 1.67936c-2.82624 7.9872 1.96608 17.08032-1.88416 24.20736l-1.96608 1.96608a8.02816 8.02816 0 0 1-1.39264 4.7104c0.94208 2.94912 2.33472 3.44064 2.8672 5.65248 4.3008 0 6.38976-2.70336 10.19904-3.64544 1.39264-1.47456 1.88416-2.94912 2.8672-3.97312h1.59744c1.39264-1.024 1.39264-3.23584 1.88416-4.21888l2.8672-2.90816c0.49152-2.00704 1.4336-3.03104 1.4336-4.7104 2.21184-1.96608 2.62144-2.94912 3.56352-4.42368 0.53248-1.96608 1.47456-2.94912 1.47456-4.62848 1.88416-2.53952 3.76832-2.94912 5.89824-3.97312a28.13952 28.13952 0 0 0 20.02944-7.12704v-1.47456a13.35296 13.35296 0 0 1 6.43072-6.71744c1.4336-1.96608 0-4.9152 4.3008-7.12704l0.94208-2.94912c0.53248-3.4816 4.58752-4.42368 4.58752-7.65952v-1.47456c0.45056-2.41664 1.88416-2.94912 2.33472-4.42368l2.33472-2.70336v-1.47456c1.18784-2.94912 2.12992-4.42368 3.15392-6.18496 0.94208-1.47456 2.82624-1.47456 4.3008-1.96608 7.33184 1.47456 13.76256 3.15392 20.6848 1.47456l2.90816-1.96608c0.86016-2.49856 2.33472-3.03104 2.33472-5.69344-0.94208-1.96608-2.41664-2.41664-2.41664-4.42368 3.35872-4.7104 7.41376-8.192 10.77248-11.55072 2.62144-4.17792 3.56352-8.192 5.98016-10.89536a9.0112 9.0112 0 0 1 4.5056 1.76128l0.94208 2.94912c1.88416 0.53248 2.90816 0.53248 4.3008 0l0.94208-1.024c2.62144-4.21888 1.39264-8.06912 2.62144-12.288 2.33472-2.49856 3.85024-5.44768 5.69344-7.41376-1.88416-7.168-0.49152-14.78656-4.38272-20.02944 0-5.36576-4.01408-8.06912-5.03808-12.0832 0-1.88416-1.39264-4.62848-1.39264-6.10304 1.39264-2.94912 4.95616-3.44064 6.43072-5.36576l0.49152-3.15392c5.69344-3.03104 11.6736-2.53952 17.6128-2.00704 0.94208-2.49856 1.47456-3.44064 2.82624-3.97312 1.47456-1.76128 2.00704-4.7104 2.70336-6.18496 1.88416-15.72864-1.67936-32.44032 1.88416-47.06304l1.47456-1.2288a13.35296 13.35296 0 0 0-0.53248-12.0832c0.94208-2.90816 0-4.9152 0-7.5776a9.74848 9.74848 0 0 1 2.90816-4.42368c0.6144-2.2528 0.6144-3.2768 0.16384-4.66944z" fill="#346BAA" p-id="3839"></path><path d="M773.44768 549.96992c-9.09312 40.50944-26.25536 9.09312-26.78784 3.03104-0.53248-6.06208-17.77664 11.14112-24.86272 17.2032-3.072 2.62144-9.87136-0.98304-18.92352-6.06208-9.99424 45.8752-62.50496-2.94912-94.33088 12.94336-8.15104 2.70336-5.44768 16.30208-10.8544 24.41216a15.31904 15.31904 0 0 1-14.09024 6.84032c2.49856 12.288 2.78528 28.2624-6.59456 41.82016-18.2272 26.33728-31.37536-9.09312-41.53344 37.4784-10.11712 46.57152 14.17216 4.05504 17.2032 27.32032s-24.12544 51.65056-19.6608 68.85376c1.4336 5.5296 0.94208 19.12832 0.98304 35.79904a5.7344 5.7344 0 0 0 1.67936-0.77824c1.47456-3.15392 5.12-4.17792 6.47168-6.06208 1.024-3.03104 4.75136-4.21888 5.3248-6.71744 5.12 3.11296 10.48576 5.65248 16.13824 7.65952 1.88416 0 4.58752-0.49152 5.89824-0.49152l1.47456 0.94208c0.86016 4.17792-0.94208 8.15104-0.49152 11.55072 0.94208 2.21184 0.94208 4.17792 1.88416 4.7104 2.62144 3.44064 5.89824 5.65248 7.7824 8.6016 2.41664 1.47456 5.57056 1.024 7.41376 1.024 4.096 2.00704 6.51264 3.44064 10.28096 4.7104 3.4816 0 5.89824 0 8.88832-0.73728 3.03104-1.024 2.08896-3.97312 5.36576-3.97312a34.85696 34.85696 0 0 1 10.28096 1.47456c0.94208 2.00704 2.90816 2.49856 4.01408 3.6864 2.90816 0.53248 4.79232 0.53248 7.20896 1.024l0.65536 1.06496c0.45056 1.88416 0.45056 4.3008 0.94208 6.06208l1.47456 1.55648c0.4096 3.8912 2.82624 5.85728 2.82624 9.05216 0.94208 1.96608 2.90816 2.94912 4.01408 4.42368 1.96608 1.024 4.3008 1.47456 5.7344 1.96608l0.94208 1.2288-1.39264 2.53952-2.90816 0.49152c-2.33472-0.49152-2.33472-2.00704-4.5056-2.00704-3.2768 1.55648-5.24288 2.49856-8.8064 2.49856-5.77536 3.4816-10.28096 7.5776-14.49984 11.10016 0.49152 2.74432-2.17088 3.6864-2.62144 5.16096-0.49152 3.4816 0.94208 6.10304 0.94208 9.13408l1.2288 1.024c1.39264 1.96608 0.94208 3.8912 1.39264 5.57056l1.47456 1.55648c1.88416 1.47456 4.21888 1.024 5.89824 1.47456l1.024 1.47456c2.33472 0.94208 4.7104 1.47456 5.57056 2.49856l0.08192 0.08192h9.99424c0.86016-1.47456 3.76832-1.024 4.21888-2.94912a18.55488 18.55488 0 0 0 8.3968-3.4816l1.39264-3.15392 3.11296-1.47456c2.41664-3.4816 0.49152-8.6016 0.94208-12.0832 2.33472-2.70336 3.85024-5.16096 5.69344-6.63552l3.072-1.024c0.94208-1.96608 0.94208-4.62848 0.94208-6.10304l-1.88416-2.41664c-6.38976-2.12992-11.96032 0.45056-17.6128-2.12992v-1.35168c0.94208-2.29376 4.21888-1.76128 4.7104-3.23584 0-2.94912 2.41664-4.95616 2.41664-7.65952-0.94208-2.8672-1.96608-4.42368-2.82624-5.89824l-1.55648-0.94208 1.55648-2.70336c1.88416-0.53248 2.82624-1.06496 4.5056-1.06496 2.33472-0.4096 2.82624-1.88416 4.38272-2.41664l1.35168-1.47456a24.73984 24.73984 0 0 1 8.31488-0.53248c3.072-1.67936 4.58752-4.62848 7.41376-5.16096a8.3968 8.3968 0 0 0 4.62848-1.47456l1.35168-2.41664c4.38272-1.2288 9.74848 0 13.1072-2.70336 0.45056-2.49856 2.12992-2.49856 2.12992-4.5056a7.7824 7.7824 0 0 1 5.69344-3.6864h4.5056l2.41664-1.88416c0.94208-1.55648 0.94208-3.4816 1.88416-4.01408l2.62144 1.024c0.53248 1.96608 0 2.94912 0.53248 4.42368l1.35168 0.53248c2.90816-0.49152 3.85024-1.96608 5.77536-2.49856l1.59744 0.94208c4.79232-1.39264 7.86432-6.10304 11.71456-7.12704l1.47456-1.4336c3.4816-2.00704 5.89824-0.53248 8.72448-1.06496l4.05504-3.35872c5.77536 0.4096 11.6736-1.06496 15.07328-5.24288h1.59744c2.82624-1.96608 6.18496-4.42368 6.18496-8.68352 1.76128-2.94912 5.98016-2.94912 6.92224-6.10304h4.58752l0.94208-0.94208c-0.53248-2.49856-3.56352-1.47456-3.072-3.4816l1.2288-1.024c1.88416-0.49152 2.82624-1.47456 4.21888-1.47456 4.096-3.15392 4.95616-7.5776 8.31488-9.6256l2.41664-1.76128c0-1.96608-0.94208-4.38272 0-5.85728l2.12992-2.70336c2.90816-0.49152 4.79232 0.45056 7.12704-0.49152l2.62144-2.00704c2.33472-2.00704 2.33472-7.12704 4.75136-8.6016l2.62144-2.00704c0.94208-2.00704 0-2.94912 0.94208-4.7104l0.94208-0.94208 1.39264-0.49152 1.024-1.024c0.94208-3.97312 2.82624-6.18496 4.05504-9.13408 0-4.42368-1.67936-8.15104-0.49152-12.0832 1.80224-0.49152 1.80224-3.15392 1.80224-4.096 1.024-1.47456 2.90816-1.47456 3.85024-2.00704 1.024-1.96608 1.024-4.62848 1.024-6.18496 0.45056-2.90816 2.12992-3.8912 2.12992-5.85728 0.4096-3.76832 2.41664-4.7104 2.41664-7.65952 1.88416-4.7104 4.7104-8.6016 5.36576-13.84448 2.90816-2.41664 3.35872-5.77536 5.3248-8.06912 2.33472-1.06496 4.5056-1.96608 5.89824-2.94912l0.94208-1.47456c0-4.7104-2.33472-10.07616 0-13.84448l1.47456-4.38272c0.49152-6.71744-1.47456-12.36992-2.41664-18.26816a28.75392 28.75392 0 0 1-9.25696-8.06912c-3.56352-0.53248-7.41376 0.94208-10.28096 0l-1.14688-1.024 1.67936-2.70336h4.3008c2.33472-0.53248 2.82624-2.00704 4.5056-2.53952 2.82624-2.8672 6.63552-4.38272 8.35584-7.5776l-1.67936-3.4816a20.15232 20.15232 0 0 1-6.63552-6.10304c0-3.44064-2.12992-6.63552-3.072-9.09312l-2.8672-2.94912a36.20864 36.20864 0 0 0-4.5056-9.09312c-2.41664-4.21888-6.22592-4.21888-8.31488-6.71744l-0.49152-1.47456c0.94208-7.65952-2.41664-14.336-2.8672-21.42208l-3.35872-3.97312c-0.45056-2.41664 0-6.10304-1.67936-7.5776l-2.82624-1.47456c-1.39264-3.23584-4.3008-1.47456-6.43072-4.17792-2.74432-0.53248-6.63552 0.45056-8.8064-1.47456-0.94208-2.49856-3.76832-2.00704-3.76832-4.95616 1.39264-2.21184 1.88416-4.17792 3.35872-4.62848a4.79232 4.79232 0 0 1 0.4096-1.2288c-12.57472 1.55648-25.10848 7.29088-29.696 27.68896z" fill="#64B064" p-id="3840"></path></svg>