<?xml version="1.0" standalone="no"?><!DOCTYPE svg PUBLIC "-//W3C//DTD SVG 1.1//EN" "http://www.w3.org/Graphics/SVG/1.1/DTD/svg11.dtd"><svg t="1627352191636" class="icon" viewBox="0 0 1276 1024" version="1.1" xmlns="http://www.w3.org/2000/svg" p-id="41884" xmlns:xlink="http://www.w3.org/1999/xlink" width="249.21875" height="200"><defs><style type="text/css">@font-face { font-family: feedback-iconfont; src: url("//at.alicdn.com/t/font_1031158_1uhr8ri0pk5.eot?#iefix") format("embedded-opentype"), url("//at.alicdn.com/t/font_1031158_1uhr8ri0pk5.woff2") format("woff2"), url("//at.alicdn.com/t/font_1031158_1uhr8ri0pk5.woff") format("woff"), url("//at.alicdn.com/t/font_1031158_1uhr8ri0pk5.ttf") format("truetype"), url("//at.alicdn.com/t/font_1031158_1uhr8ri0pk5.svg#iconfont") format("svg"); }
</style></defs><path d="M135.169825 0l1141.058984 183.222097-135.002554 840.777903L0.167271 840.777903 135.169825 0z" fill="#BD89D8" p-id="41885"></path><path d="M75.560677 101.426789l1155.687556-15.206415v866.765667h-1170.893971l15.206415-851.559252z" fill="#93C3E6" p-id="41886"></path><path d="M60.354262 86.220374h1155.687556v851.559252h-1155.687556z" fill="#A7DAFF" p-id="41887"></path><path d="M349.276151 329.523018m-91.238491 0a91.238491 91.238491 0 1 0 182.476982 0 91.238491 91.238491 0 1 0-182.476982 0Z" fill="#FFFF99" p-id="41888"></path><path d="M60.354262 800.921889l364.953965-228.096228 167.270567 106.444906 364.953965-364.953965 258.509059 319.33472v304.128304h-1155.687556v-136.857737z" fill="#6CB08E" p-id="41889"></path><path d="M60.354262 800.921889l364.953965-228.096228 106.444906 152.064152 425.779626-410.573211-15.206415 167.270568 273.715474 152.064152v304.128304h-1155.687556v-136.857737z" fill="#75CAAF" p-id="41890"></path></svg>