<?xml version="1.0" standalone="no"?><!DOCTYPE svg PUBLIC "-//W3C//DTD SVG 1.1//EN" "http://www.w3.org/Graphics/SVG/1.1/DTD/svg11.dtd"><svg t="1644567506951" class="icon" viewBox="0 0 1024 1024" version="1.1" xmlns="http://www.w3.org/2000/svg" p-id="28474" xmlns:xlink="http://www.w3.org/1999/xlink" width="200" height="200"><defs><style type="text/css"></style></defs><path d="M807.822222 585.955556H204.8c-51.2 0-91.022222-39.822222-91.022222-91.022223 0-51.2 39.822222-91.022222 91.022222-91.022222h608.711111c51.2 0 91.022222 39.822222 91.022222 91.022222-5.688889 51.2-45.511111 91.022222-96.711111 91.022223zM204.8 420.977778c-45.511111 0-79.644444 34.133333-79.644444 73.955555 0 45.511111 34.133333 79.644444 79.644444 79.644445h608.711111c45.511111 0 79.644444-34.133333 79.644445-79.644445 0-45.511111-34.133333-79.644444-79.644445-79.644444-5.688889 5.688889-608.711111 5.688889-608.711111 5.688889z" fill="#409EFF" p-id="28475"></path><path d="M506.311111 432.355556H204.8c-11.377778 0-22.755556 5.688889-28.444444 5.688888-17.066667 17.066667-34.133333 34.133333-34.133334 56.888889 0 34.133333 22.755556 56.888889 56.888889 62.577778h301.511111c11.377778 0 22.755556-5.688889 34.133334-11.377778 17.066667-11.377778 34.133333-34.133333 34.133333-56.888889-5.688889-22.755556-28.444444-51.2-62.577778-56.888888z" fill="#409EFF" p-id="28476"></path></svg>