<?xml version="1.0" standalone="no"?><!DOCTYPE svg PUBLIC "-//W3C//DTD SVG 1.1//EN" "http://www.w3.org/Graphics/SVG/1.1/DTD/svg11.dtd"><svg t="1644485437356" class="icon" viewBox="0 0 1024 1024" version="1.1" xmlns="http://www.w3.org/2000/svg" p-id="9230" xmlns:xlink="http://www.w3.org/1999/xlink" width="200" height="200"><defs><style type="text/css"></style></defs><path d="M356.8 860.8a14.72 14.72 0 0 1 0-28.8H704a14.72 14.72 0 0 1 0 28.8H356.8z" fill="#DCE7FE" p-id="9231"></path><path d="M652.48 828.16h-243.84l52.8-95.68h138.24l52.8 95.68z" fill="#CBDBF9" p-id="9232"></path><path d="M112.32 169.28m128 0l590.4 0q128 0 128 128l0 340.16q0 128-128 128l-590.4 0q-128 0-128-128l0-340.16q0-128 128-128Z" fill="#DAE8FF" p-id="9233"></path><path d="M532.48 736a44.8 44.8 0 0 1 0-89.28 44.8 44.8 0 1 1 0 89.28z" fill="#CADBFA" p-id="9234"></path><path d="M154.88 215.36m64 0l626.24 0q64 0 64 64l0 270.4q0 64-64 64l-626.24 0q-64 0-64-64l0-270.4q0-64 64-64Z" fill="#EEF4FE" p-id="9235"></path><path d="M199.68 351.36h264.64v96.32H199.68z" fill="#00B4FF" p-id="9236"></path><path d="M199.68 471.68h264.64v108.16H199.68z" fill="#00D689" p-id="9237"></path><path d="M532.16 452.48h330.88v24H532.16zM532.16 500.48h330.88v24H532.16z" fill="#41E2D1" p-id="9238"></path><path d="M204.8 252.48h262.72v24H204.8zM204.8 300.8h262.72v24H204.8z" fill="#00B4FF" p-id="9239"></path><path d="M532.16 548.48h330.88v24H532.16z" fill="#41E2D1" p-id="9240"></path><path d="M774.72 341.44h84.16v-6.72a43.2 43.2 0 0 0-86.08-2.88 7.36 7.36 0 0 0-3.2-2.24V245.76h-6.72a42.88 42.88 0 0 0-2.88 85.76 7.36 7.36 0 0 0-2.24 3.2h-84.16v6.72a43.2 43.2 0 0 0 86.08 2.88 12.48 12.48 0 0 0 3.2 2.56v83.84h6.72a42.88 42.88 0 0 0 2.88-85.76z" fill="#00D689" p-id="9241"></path><path d="M536.96 309.76h24v24h-24zM584.96 309.76h24v24h-24zM536.32 256h25.6v24h-25.6zM582.72 256h25.6v24h-25.6zM630.72 256h25.6v24h-25.6z" fill="#41E2D1" p-id="9242"></path></svg>