<?xml version="1.0" standalone="no"?><!DOCTYPE svg PUBLIC "-//W3C//DTD SVG 1.1//EN" "http://www.w3.org/Graphics/SVG/1.1/DTD/svg11.dtd"><svg t="1644471037658" class="icon" viewBox="0 0 1024 1024" version="1.1" xmlns="http://www.w3.org/2000/svg" p-id="41855" xmlns:xlink="http://www.w3.org/1999/xlink" width="200" height="200"><defs><style type="text/css"></style></defs><path d="M262.336 450.752l294.176-294.176a64 64 0 0 1 90.496 0l294.176 294.176a64 64 0 0 1 0 90.496l-294.176 294.176a64 64 0 0 1-90.496 0l-294.176-294.176a64 64 0 0 1 0-90.496z" fill="#4878FF" p-id="41856"></path><path d="M83.52 450.752l181.056-181.024a64 64 0 0 1 90.496 0l181.024 181.024a64 64 0 0 1 0 90.496l-181.024 181.024a64 64 0 0 1-90.496 0L83.52 541.248a64 64 0 0 1 0-90.496z" fill="#AFC4FF" p-id="41857"></path><path d="M400.384 313.184l136.896 136.896a64 64 0 0 1 0 90.496l-136.864 136.832-136.864-136.832a64 64 0 0 1 0-90.496l136.832-136.896z" fill="#275FFF" p-id="41858"></path></svg>