<?xml version="1.0" standalone="no"?><!DOCTYPE svg PUBLIC "-//W3C//DTD SVG 1.1//EN" "http://www.w3.org/Graphics/SVG/1.1/DTD/svg11.dtd"><svg t="1644485104945" class="icon" viewBox="0 0 1025 1024" version="1.1" xmlns="http://www.w3.org/2000/svg" p-id="10130" xmlns:xlink="http://www.w3.org/1999/xlink" width="200.1953125" height="200"><defs><style type="text/css"></style></defs><path d="M920.200603 218.821506l-344.735176 136.528782a174.756841 174.756841 0 0 1-62.120596 10.239659 173.732876 173.732876 0 0 1-62.120596-10.239659l-344.735175-136.528782a40.958635 40.958635 0 0 1-34.132196-36.180127 40.958635 40.958635 0 0 1 34.132196-36.180128L451.224235 10.273791A178.511383 178.511383 0 0 1 512.662187 0.034132a172.70891 172.70891 0 0 1 62.120596 10.239659l344.735176 136.528782a40.958635 40.958635 0 0 1 34.132195 36.180128 40.958635 40.958635 0 0 1-33.449551 35.838805zM440.643255 580.281457v385.69381A53.928869 53.928869 0 0 1 389.786283 1024h-3.071898a68.264391 68.264391 0 0 1-24.233858-4.778507l-299.680678-115.366821A104.78584 104.78584 0 0 1 0.679253 808.284524v-385.69381a49.150362 49.150362 0 0 1 40.617313-56.659445h6.143795a64.168528 64.168528 0 0 1 22.868571 4.437185L376.133405 485.393954A108.881704 108.881704 0 0 1 440.643255 580.281457z" fill="#686D7A" p-id="10131"></path><path d="M958.428662 907.950535l-68.264392 26.281791V392.21306l56.659445-22.185928a75.773474 75.773474 0 0 1 25.599147-4.778507A53.928869 53.928869 0 0 1 1024.645121 419.177494v392.520249a110.929636 110.929636 0 0 1-66.216459 96.252792z m-311.968268-421.532616L751.587556 443.752675v541.336622l-97.276757 36.180127a65.192494 65.192494 0 0 1-24.233859 0 44.030532 44.030532 0 0 1-46.419786-50.856971V583.012033a104.78584 104.78584 0 0 1 62.80324-96.594114z" fill="#4C87D7" p-id="10132"></path></svg>