<?xml version="1.0" encoding="iso-8859-1"?>
<!-- Generator: Adobe Illustrator 16.0.0, SVG Export Plug-In . SVG Version: 6.00 Build 0)  -->
<!DOCTYPE svg PUBLIC "-//W3C//DTD SVG 1.1//EN" "http://www.w3.org/Graphics/SVG/1.1/DTD/svg11.dtd">
<svg version="1.1" id="&#x56FE;&#x5C42;_1" xmlns="http://www.w3.org/2000/svg" xmlns:xlink="http://www.w3.org/1999/xlink" x="0px"
	 y="0px" width="612px" height="792px" viewBox="0 0 612 792" style="enable-background:new 0 0 612 792;" xml:space="preserve">
<g>
	<g>
		<defs>
			<rect id="SVGID_1_" x="10" y="41.421" width="594.592" height="714.579"/>
		</defs>
		<clipPath id="SVGID_2_">
			<use xlink:href="#SVGID_1_"  style="overflow:visible;"/>
		</clipPath>
		<path style="clip-path:url(#SVGID_2_);fill:#D81E06;" d="M596.094,600.6c-45.064-33.528-71.524-86.465-71.299-142.634V339.142
			c-0.124-97.392-64.766-182.919-158.434-209.606v-28.043c0-32.758-26.657-59.415-59.41-59.415
			c-32.758,0-59.414,26.657-59.414,59.415v28.043C153.869,156.222,89.227,241.75,89.103,339.142v118.824
			c0.212,56.165-26.246,109.096-71.299,142.634c-6.817,5.114-9.597,14.018-6.904,22.106c2.697,8.087,10.267,13.54,18.788,13.54
			h180.219c-5.901,29.125,1.575,59.361,20.367,82.38c18.792,23.021,46.919,36.396,76.636,36.444
			c29.724-0.037,57.86-13.409,76.661-36.429c18.8-23.022,26.283-53.265,20.379-82.396h180.218c8.525,0,16.096-5.453,18.789-13.54
			c2.696-8.089-0.087-16.992-6.906-22.106H596.094z M287.147,101.492c0-10.939,8.865-19.804,19.804-19.804
			c10.936,0,19.801,8.865,19.801,19.804v20.715c-13.176-1.201-26.43-1.201-39.605,0V101.492z M366.361,656.009
			c0,32.758-26.657,59.415-59.41,59.415c-19.272-0.038-37.332-9.413-48.46-25.149c-11.125-15.736-13.938-35.886-7.547-54.069h112.01
			C365.176,642.543,366.361,649.236,366.361,656.009L366.361,656.009z M78.885,596.599c10.097-12.238,18.891-25.588,26.103-39.649
			c15.706-30.623,23.842-64.563,23.725-98.983V339.142c0-98.269,79.967-178.239,178.239-178.239
			c98.268,0,178.235,79.97,178.235,178.239v118.824c-0.167,50.625,17.474,99.697,49.831,138.633H78.843H78.885z M78.885,596.599"/>
	</g>
</g>
</svg>
